<svg width="231" height="231" viewBox="0 0 231 231" fill="none" xmlns="http://www.w3.org/2000/svg">
<g clip-path="url(#clip0_2810_7519)">
<mask id="mask0_2810_7519" style="mask-type:luminance" maskUnits="userSpaceOnUse" x="43" y="28" width="146" height="30">
<path d="M43.0743 28.6632H188.39V57.6513H43.0743V28.6632Z" fill="white"/>
</mask>
<g mask="url(#mask0_2810_7519)">
<path d="M35.9181 -7.04309H195.428V238.452H35.9181V-7.04309Z" fill="#F99800"/>
</g>
<mask id="mask1_2810_7519" style="mask-type:luminance" maskUnits="userSpaceOnUse" x="72" y="0" width="87" height="29">
<path d="M72.356 0H158.685V28.9881H72.356V0Z" fill="white"/>
</mask>
<g mask="url(#mask1_2810_7519)">
<path d="M35.9181 -7.04309H195.428V238.452H35.9181V-7.04309Z" fill="#F99800"/>
</g>
<mask id="mask2_2810_7519" style="mask-type:luminance" maskUnits="userSpaceOnUse" x="43" y="57" width="115" height="30">
<path d="M43.0743 57.454H157.925V86.4397H43.0743V57.454Z" fill="white"/>
</mask>
<g mask="url(#mask2_2810_7519)">
<path d="M35.9181 -7.04321H195.428V238.452H35.9181V-7.04321Z" fill="#00BD25"/>
</g>
<mask id="mask3_2810_7519" style="mask-type:luminance" maskUnits="userSpaceOnUse" x="43" y="86" width="87" height="30">
<path d="M43.0743 86.3844H129.966V115.372H43.0743V86.3844Z" fill="white"/>
</mask>
<g mask="url(#mask3_2810_7519)">
<path d="M35.9181 -7.04309H195.428V238.452H35.9181V-7.04309Z" fill="#FF4147"/>
</g>
<mask id="mask4_2810_7519" style="mask-type:luminance" maskUnits="userSpaceOnUse" x="42" y="172" width="147" height="31">
<path d="M42.7711 172.48H188.496V202.313H42.7711V172.48Z" fill="white"/>
</mask>
<g mask="url(#mask4_2810_7519)">
<mask id="mask5_2810_7519" style="mask-type:luminance" maskUnits="userSpaceOnUse" x="42" y="172" width="147" height="31">
<path d="M42.9756 173.248L43.0599 202.236L188.376 201.798L188.291 172.812L42.9756 173.248Z" fill="white"/>
</mask>
<g mask="url(#mask5_2810_7519)">
<path d="M35.9181 -7.04321H195.428V238.452H35.9181V-7.04321Z" fill="#F99800"/>
</g>
</g>
<mask id="mask6_2810_7519" style="mask-type:luminance" maskUnits="userSpaceOnUse" x="72" y="201" width="88" height="30">
<path d="M72.688 201.689H159.544V231H72.688V201.689Z" fill="white"/>
</mask>
<g mask="url(#mask6_2810_7519)">
<mask id="mask7_2810_7519" style="mask-type:luminance" maskUnits="userSpaceOnUse" x="72" y="201" width="88" height="31">
<path d="M159.234 201.884L72.9069 202.137L72.9911 231.125H73.1307L159.318 230.87L159.234 201.884Z" fill="white"/>
</mask>
<g mask="url(#mask7_2810_7519)">
<path d="M35.918 -7.04309H195.428V238.452H35.918V-7.04309Z" fill="#F99800"/>
</g>
</g>
<mask id="mask8_2810_7519" style="mask-type:luminance" maskUnits="userSpaceOnUse" x="43" y="115" width="116" height="30">
<path d="M43.0165 115.259H158.671V144.247H43.0165V115.259Z" fill="white"/>
</mask>
<g mask="url(#mask8_2810_7519)">
<path d="M35.9181 -7.04309H195.428V238.452H35.9181V-7.04309Z" fill="#FFCB00"/>
</g>
<mask id="mask9_2810_7519" style="mask-type:luminance" maskUnits="userSpaceOnUse" x="42" y="144" width="147" height="30">
<path d="M42.9612 144.317H188.277V173.291H42.9612V144.317Z" fill="white"/>
</mask>
<g mask="url(#mask9_2810_7519)">
<path d="M35.9181 -7.04309H195.428V238.452H35.9181V-7.04309Z" fill="#B3441A"/>
</g>
<mask id="mask10_2810_7519" style="mask-type:luminance" maskUnits="userSpaceOnUse" x="74" y="144" width="61" height="30">
<path d="M74.3844 144.204H134.276V173.276H74.3844V144.204Z" fill="white"/>
</mask>
<g mask="url(#mask10_2810_7519)">
<path d="M35.9181 -7.04309H195.428V238.452H35.9181V-7.04309Z" fill="#FFCB00"/>
</g>
<mask id="mask11_2810_7519" style="mask-type:luminance" maskUnits="userSpaceOnUse" x="53" y="37" width="11" height="12">
<path d="M53.3826 37.9586H63.8209V48.3969H53.3826V37.9586Z" fill="white"/>
</mask>
<g mask="url(#mask11_2810_7519)">
<path d="M35.9181 -7.04309H195.428V238.452H35.9181V-7.04309Z" fill="#F5C12F"/>
</g>
<mask id="mask12_2810_7519" style="mask-type:luminance" maskUnits="userSpaceOnUse" x="83" y="37" width="12" height="12">
<path d="M83.8651 37.9586H94.301V48.3969H83.8651V37.9586Z" fill="white"/>
</mask>
<g mask="url(#mask12_2810_7519)">
<path d="M35.9181 -7.04309H195.428V238.452H35.9181V-7.04309Z" fill="#F5C12F"/>
</g>
<mask id="mask13_2810_7519" style="mask-type:luminance" maskUnits="userSpaceOnUse" x="110" y="37" width="12" height="12">
<path d="M110.921 37.9586H121.359V48.3969H110.921V37.9586Z" fill="white"/>
</mask>
<g mask="url(#mask13_2810_7519)">
<path d="M35.9181 -7.04309H195.428V238.452H35.9181V-7.04309Z" fill="#F5C12F"/>
</g>
<mask id="mask14_2810_7519" style="mask-type:luminance" maskUnits="userSpaceOnUse" x="139" y="37" width="11" height="12">
<path d="M139.389 37.9586H149.825V48.3969H139.389V37.9586Z" fill="white"/>
</mask>
<g mask="url(#mask14_2810_7519)">
<path d="M35.9181 -7.04309H195.428V238.452H35.9181V-7.04309Z" fill="#F5C12F"/>
</g>
<mask id="mask15_2810_7519" style="mask-type:luminance" maskUnits="userSpaceOnUse" x="167" y="37" width="11" height="12">
<path d="M167.362 37.9586H177.798V48.3969H167.362V37.9586Z" fill="white"/>
</mask>
<g mask="url(#mask15_2810_7519)">
<path d="M35.9181 -7.04309H195.428V238.452H35.9181V-7.04309Z" fill="#F5C12F"/>
</g>
<mask id="mask16_2810_7519" style="mask-type:luminance" maskUnits="userSpaceOnUse" x="83" y="10" width="12" height="11">
<path d="M83.8651 10.1976H94.301V20.6335H83.8651V10.1976Z" fill="white"/>
</mask>
<g mask="url(#mask16_2810_7519)">
<path d="M35.9181 -7.04309H195.428V238.452H35.9181V-7.04309Z" fill="#F5C12F"/>
</g>
<mask id="mask17_2810_7519" style="mask-type:luminance" maskUnits="userSpaceOnUse" x="110" y="10" width="11" height="11">
<path d="M110.302 10.1976H120.738V20.6335H110.302V10.1976Z" fill="white"/>
</mask>
<g mask="url(#mask17_2810_7519)">
<path d="M35.9181 -7.04309H195.428V238.452H35.9181V-7.04309Z" fill="#F5C12F"/>
</g>
<mask id="mask18_2810_7519" style="mask-type:luminance" maskUnits="userSpaceOnUse" x="139" y="10" width="11" height="11">
<path d="M139.389 10.1976H149.825V20.6335H139.389V10.1976Z" fill="white"/>
</mask>
<g mask="url(#mask18_2810_7519)">
<path d="M35.9181 -7.04309H195.428V238.452H35.9181V-7.04309Z" fill="#F5C12F"/>
</g>
</g>
<defs>
<clipPath id="clip0_2810_7519">
<rect width="231" height="231" fill="white"/>
</clipPath>
</defs>
</svg>
