<svg width="165" height="165" viewBox="0 0 165 165" fill="none" xmlns="http://www.w3.org/2000/svg">
<g id="fouet saladier" clip-path="url(#clip0_2137_2037)">
<path id="Vector" d="M84.126 150.293C89.5349 149.8 94.9008 148.835 100.165 147.491C105.353 146.164 110.784 144.64 115.596 142.256C115.804 142.153 115.658 141.806 115.438 141.881C110.39 143.605 105.5 145.596 100.325 146.964C94.9988 148.371 89.5864 149.363 84.126 150.088C83.9971 150.106 83.9919 150.307 84.126 150.293Z" fill="#F99800"/>
<path id="Vector_2" d="M90.3538 146.566C102.672 144.825 115.314 141.372 126.413 135.659C126.674 135.525 126.444 135.162 126.188 135.274C120.322 137.819 114.506 140.294 108.382 142.173C102.459 143.99 96.4124 145.365 90.2988 146.363C90.1648 146.384 90.2232 146.583 90.3538 146.566Z" fill="#F99800"/>
<path id="Vector_3" d="M97.0588 142.522C102.811 141.642 108.476 140.307 114.002 138.478C119.296 136.726 124.703 134.645 129.531 131.835C129.779 131.692 129.562 131.342 129.313 131.459C124.047 133.934 118.871 136.407 113.339 138.256C108.011 140.035 102.542 141.379 97.0003 142.309C96.8594 142.333 96.9196 142.543 97.0588 142.522Z" fill="#F99800"/>
<path id="Vector_4" d="M104.733 137.61C115.123 135.484 125.37 131.956 134.658 126.803C134.849 126.698 134.681 126.418 134.488 126.514C124.947 131.27 115.085 135.027 104.664 137.358C104.499 137.395 104.57 137.645 104.733 137.61Z" fill="#F99800"/>
<path id="Vector_5" d="M112.334 132.079C121.935 130.422 131.914 126.428 139.39 120.058C139.545 119.924 139.339 119.652 139.167 119.771C135.136 122.573 131.145 125.243 126.663 127.297C122.072 129.403 117.248 130.943 112.303 131.969C112.231 131.983 112.262 132.091 112.334 132.079Z" fill="#F99800"/>
<path id="Vector_6" d="M120.973 126.546C128.109 124.79 135.931 121.971 140.697 116.072C140.852 115.881 140.596 115.608 140.421 115.797C135.12 121.485 128.211 124.143 120.928 126.381C120.822 126.414 120.866 126.572 120.973 126.546Z" fill="#F99800"/>
<path id="Vector_7" d="M111.39 95.9971C121.084 98.2161 130.118 101.611 138.639 106.787C138.993 107.001 139.317 106.445 138.964 106.232C130.651 101.198 121.134 97.0267 111.421 95.7651C111.289 95.7479 111.261 95.9679 111.39 95.9971Z" fill="#F99800"/>
<path id="Vector_8" d="M122.101 95.1243C126.354 96.8018 130.674 98.0444 134.773 100.141C136.847 101.203 138.712 102.642 140.773 103.713C141.088 103.876 141.313 103.453 141.045 103.251C139.085 101.766 136.727 100.509 134.512 99.4504C130.612 97.589 126.403 95.7997 122.133 95.0125C122.058 94.9988 122.032 95.0968 122.101 95.1243Z" fill="#F99800"/>
<path id="Vector_9" d="M129.784 94.2116C134.452 95.9097 138.828 98.0994 142.716 101.216C143.036 101.472 143.493 101.02 143.17 100.762C139.251 97.6302 134.686 95.3133 129.867 93.9177C129.674 93.8627 129.604 94.1446 129.784 94.2116Z" fill="#F99800"/>
<path id="Vector_10" d="M152.753 9.39621C154.358 10.8021 154.387 12.8406 154.477 14.812C154.487 15.0182 154.8 15.02 154.798 14.812C154.791 12.7993 154.554 10.6114 152.863 9.28621C152.786 9.22605 152.676 9.32918 152.753 9.39621Z" fill="#F99800"/>
<path id="Vector_11" d="M152.384 10.9692C153.513 12.5968 153.725 14.4015 153.285 16.3042C153.243 16.4795 153.498 16.55 153.555 16.3781C154.17 14.4943 153.697 12.4507 152.532 10.8832C152.468 10.7973 152.322 10.8781 152.384 10.9692Z" fill="#F99800"/>
<path id="Vector_12" d="M151.416 11.9504C152.243 13.7139 152.434 15.546 152.183 17.4642C152.164 17.6223 152.434 17.6584 152.465 17.502C152.841 15.5495 152.487 13.6107 151.595 11.8456C151.533 11.727 151.363 11.8318 151.416 11.9504Z" fill="#F99800"/>
<path id="Vector_13" d="M150.323 12.6947C151.155 14.4977 151.335 16.3419 150.797 18.2583C150.739 18.468 151.06 18.5556 151.12 18.3494C151.677 16.4209 151.459 14.3636 150.436 12.6277C150.392 12.5537 150.29 12.6191 150.323 12.6947Z" fill="#F99800"/>
<path id="Vector_14" d="M149.027 14.1313C150.154 15.9824 150.084 17.9401 149.267 19.8874C149.202 20.0438 149.456 20.1418 149.539 20.0009C150.615 18.1394 150.343 15.7899 149.197 14.0334C149.128 13.9285 148.961 14.023 149.027 14.1313Z" fill="#F99800"/>
<path id="Vector_15" d="M147.685 15.2128C148.662 17.0897 148.699 19.0508 148.084 21.0428C148.024 21.2336 148.309 21.3041 148.378 21.1236C149.139 19.135 148.856 16.9625 147.856 15.1149C147.795 15.0031 147.629 15.1028 147.685 15.2128Z" fill="#F99800"/>
<path id="Vector_16" d="M146.464 16.3918C147.317 18.2446 147.459 20.1834 147.009 22.1668C146.966 22.3541 147.251 22.4349 147.299 22.2459C147.825 20.216 147.561 18.1621 146.645 16.2852C146.586 16.1632 146.407 16.2681 146.464 16.3918Z" fill="#F99800"/>
<path id="Vector_17" d="M145.277 17.2768C146.217 18.7738 146.295 20.343 145.932 22.0308C145.893 22.2216 146.159 22.2921 146.223 22.1116C146.805 20.4547 146.36 18.6191 145.403 17.2029C145.351 17.1255 145.227 17.196 145.277 17.2768Z" fill="#F99800"/>
<path id="Vector_18" d="M144.172 18.561C145.029 20.1474 145.105 21.7321 144.777 23.4732C144.744 23.6485 144.99 23.7207 145.046 23.5471C145.596 21.8507 145.21 19.9807 144.323 18.4733C144.266 18.3754 144.118 18.4613 144.172 18.561Z" fill="#F99800"/>
<path id="Vector_19" d="M142.897 19.731C143.704 21.3467 143.937 23.0775 143.652 24.8581C143.624 25.0265 143.882 25.1021 143.912 24.9303C144.242 23.0843 143.929 21.2934 143.049 19.6434C142.994 19.5437 142.846 19.6296 142.897 19.731Z" fill="#F99800"/>
<path id="Vector_20" d="M141.785 21.2436C142.577 23.0482 142.672 24.975 142.247 26.8897C142.197 27.1148 142.538 27.2111 142.596 26.9842C143.11 24.9715 142.837 23.007 141.982 21.1267C141.921 20.9926 141.725 21.1095 141.785 21.2436Z" fill="#F99800"/>
<path id="Vector_21" d="M140.662 21.5102C141.419 23.0296 141.539 24.5335 141.391 26.1972C141.376 26.3691 141.663 26.4103 141.697 26.2385C142.02 24.5919 141.601 22.88 140.805 21.4277C140.753 21.3331 140.614 21.4174 140.662 21.5102Z" fill="#F99800"/>
<path id="Vector_22" d="M139.709 22.7373C140.596 24.2601 140.671 25.8585 140.211 27.5274C140.154 27.7319 140.451 27.8058 140.525 27.6133C141.165 25.953 140.848 24.1002 139.913 22.6187C139.831 22.4915 139.632 22.6066 139.709 22.7373Z" fill="#F99800"/>
<path id="Vector_23" d="M139.165 24.4439C139.64 25.8378 139.645 27.1681 139.399 28.605C139.37 28.7734 139.612 28.8473 139.66 28.6772C140.056 27.2558 139.896 25.7536 139.397 24.3786C139.346 24.2359 139.115 24.2961 139.165 24.4439Z" fill="#F99800"/>
<path id="Vector_24" d="M137.83 25.0524C138.655 26.7075 138.728 28.4383 138.325 30.2206C138.284 30.4149 138.566 30.4956 138.626 30.3031C139.193 28.4933 138.889 26.601 138.033 24.932C137.964 24.798 137.762 24.9183 137.83 25.0524Z" fill="#F99800"/>
<path id="Vector_25" d="M136.84 26.5032C137.313 28.2787 137.227 29.9166 136.881 31.7024C136.852 31.8537 137.067 31.9155 137.113 31.766C137.663 30.0404 137.543 28.167 137.053 26.443C137.014 26.309 136.804 26.3657 136.84 26.5032Z" fill="#F99800"/>
<path id="Vector_26" d="M134.907 26.1491C135.919 27.9211 136.158 29.8513 135.801 31.8433C135.768 32.0341 136.05 32.1183 136.096 31.9241C136.579 29.8839 136.167 27.8283 135.106 26.0339C135.031 25.905 134.833 26.0202 134.907 26.1491Z" fill="#F99800"/>
<path id="Vector_27" d="M134.338 28.2564C135.102 29.8548 135.225 31.4515 135.038 33.1875C135.019 33.3645 135.311 33.4023 135.349 33.2305C135.731 31.4945 135.356 29.6933 134.555 28.1292C134.479 27.9865 134.268 28.112 134.338 28.2564Z" fill="#F99800"/>
<path id="Vector_28" d="M133.354 29.3372C133.975 30.9012 134.016 32.4636 133.653 34.0929C133.612 34.282 133.889 34.3611 133.944 34.1737C134.43 32.5254 134.231 30.8187 133.55 29.2547C133.504 29.1429 133.31 29.2237 133.354 29.3372Z" fill="#F99800"/>
<path id="Vector_29" d="M131.901 28.734C132.577 30.1313 132.778 31.4771 133.03 32.9879C133.058 33.158 133.324 33.1133 133.324 32.9466C133.336 31.4599 132.728 29.9491 132.015 28.6669C131.973 28.5947 131.867 28.6583 131.901 28.734Z" fill="#F99800"/>
<path id="Vector_30" d="M131.013 30.4165C131.576 31.6488 131.703 32.8279 131.533 34.1634C131.508 34.361 131.844 34.4057 131.882 34.2098C132.149 32.8881 131.86 31.4753 131.155 30.334C131.098 30.2412 130.97 30.322 131.013 30.4165Z" fill="#F99800"/>
<path id="Vector_31" d="M129.585 31.5423C130.562 33.0032 130.667 34.4659 130.418 36.1623C130.391 36.3393 130.633 36.415 130.693 36.2362C131.241 34.6309 130.736 32.7712 129.789 31.422C129.703 31.3 129.5 31.4151 129.585 31.5423Z" fill="#F99800"/>
<path id="Vector_32" d="M128.971 33.538C129.65 34.882 129.675 36.178 129.419 37.6303C129.388 37.8056 129.632 37.8795 129.691 37.7042C130.155 36.2949 129.851 34.7067 129.175 33.4194C129.103 33.2836 128.904 33.4022 128.971 33.538Z" fill="#F99800"/>
<path id="Vector_33" d="M128.208 34.6704C128.589 35.9234 128.565 37.0921 128.445 38.376C128.431 38.5238 128.663 38.5496 128.701 38.4104C129.033 37.166 128.859 35.8082 128.473 34.5965C128.419 34.4298 128.156 34.5002 128.208 34.6704Z" fill="#F99800"/>
<path id="Vector_34" d="M126.754 34.4267C127.357 35.9873 127.429 37.5118 127.185 39.1515C127.158 39.3303 127.422 39.4145 127.465 39.2271C127.831 37.5978 127.586 35.9031 126.946 34.3751C126.898 34.2582 126.706 34.3063 126.754 34.4267Z" fill="#F99800"/>
<path id="Vector_35" d="M125.639 34.5882C126.33 36.3189 126.477 38.0789 126.226 39.9163C126.202 40.1002 126.476 40.1861 126.513 39.9936C126.878 38.1202 126.599 36.245 125.859 34.4953C125.807 34.3716 125.587 34.4627 125.639 34.5882Z" fill="#F99800"/>
<path id="Vector_36" d="M124.885 36.6319C125.581 38.1633 125.569 39.6174 125.295 41.2433C125.268 41.4135 125.5 41.4823 125.557 41.3155C126.102 39.7498 125.773 37.988 125.045 36.5391C124.991 36.4308 124.835 36.5254 124.885 36.6319Z" fill="#F99800"/>
<path id="Vector_37" d="M123.933 36.7298C124.136 37.4311 124.37 38.0962 124.439 38.8284C124.499 39.4747 124.42 40.1072 124.406 40.75C124.401 40.8892 124.611 40.915 124.647 40.7826C124.999 39.5073 124.712 37.8144 124.011 36.6972C123.987 36.6576 123.92 36.6834 123.933 36.7298Z" fill="#F99800"/>
<path id="Vector_38" d="M123.064 37.8059C123.585 39.0691 123.614 40.2534 123.545 41.594C123.538 41.7435 123.777 41.7762 123.807 41.6301C124.076 40.3376 123.745 38.9265 123.205 37.7474C123.169 37.6684 123.03 37.7251 123.064 37.8059Z" fill="#F99800"/>
<path id="Vector_39" d="M121.799 38.507C122.435 39.8373 122.415 41.0868 122.239 42.5134C122.217 42.6921 122.487 42.7076 122.54 42.5546C122.994 41.1951 122.645 39.6276 121.994 38.3918C121.927 38.2629 121.737 38.3781 121.799 38.507Z" fill="#F99800"/>
<path id="Vector_40" d="M120.475 39.344C121.291 41.0353 121.245 42.6664 120.815 44.4539C120.769 44.6464 121.033 44.7065 121.106 44.5329C121.816 42.8279 121.504 40.829 120.676 39.2271C120.607 39.0948 120.413 39.2117 120.475 39.344Z" fill="#F99800"/>
<path id="Vector_41" d="M119.057 40.2946C119.817 41.9703 119.769 43.5774 119.358 45.3339C119.312 45.5316 119.59 45.6038 119.659 45.4164C120.271 43.72 119.953 41.8105 119.169 40.2275C119.131 40.1519 119.023 40.2189 119.057 40.2946Z" fill="#F99800"/>
<path id="Vector_42" d="M117.597 40.908C118.64 42.4153 118.834 44.0688 118.492 45.8391C118.451 46.0471 118.757 46.1382 118.817 45.9268C119.307 44.1564 118.812 42.283 117.751 40.8186C117.684 40.7258 117.53 40.8118 117.597 40.908Z" fill="#F99800"/>
<path id="Vector_43" d="M116.438 41.927C117.588 43.4068 117.857 44.9898 117.766 46.8134C117.758 46.9904 118.05 47.0368 118.081 46.8563C118.402 45.0654 117.68 43.1937 116.524 41.841C116.472 41.7809 116.391 41.8685 116.438 41.927Z" fill="#F99800"/>
<path id="Vector_44" d="M31.0382 89.9696C22.3637 91.9839 13.5379 95.9078 6.55461 101.482C6.32946 101.661 6.6268 102.047 6.86399 101.882C10.5301 99.3505 14.1687 96.9271 18.1871 94.9711C22.3345 92.9516 26.6537 91.4064 31.0915 90.1638C31.217 90.1277 31.1654 89.9421 31.0382 89.9696Z" fill="#F99800"/>
<path id="Vector_45" d="M27.897 95.0124C21.6081 97.0681 15.2144 99.9659 9.95844 104.014C9.75907 104.168 9.95328 104.515 10.1613 104.359C15.6183 100.291 21.6528 97.6627 27.9297 95.1345C28.0036 95.1052 27.9761 94.9866 27.897 95.0124Z" fill="#F99800"/>
<path id="Vector_46" d="M30.3056 97.63C27.4713 98.7438 24.7093 100.141 22.0401 101.604C19.4156 103.042 16.6277 104.627 14.4432 106.695C14.2937 106.837 14.4931 107.109 14.6667 106.987C17.1674 105.227 19.5548 103.434 22.2257 101.922C24.8829 100.418 27.6638 99.1855 30.3743 97.7899C30.4602 97.7452 30.4001 97.5939 30.3056 97.63Z" fill="#F99800"/>
<path id="Vector_47" d="M30.8485 101.757C27.0466 103.568 22.9646 105.381 19.821 108.247C19.6388 108.413 19.9035 108.659 20.0874 108.511C23.4407 105.818 27.1034 103.835 30.9138 101.87C30.9895 101.831 30.9241 101.722 30.8485 101.757Z" fill="#F99800"/>
<path id="Vector_48" d="M86.7833 109.744C84.9666 110.634 83.1499 111.688 81.4534 112.791C81.2799 112.904 81.4311 113.161 81.615 113.066C83.4214 112.155 85.2467 111.115 86.9311 109.993C87.0858 109.89 86.9517 109.661 86.7833 109.744Z" fill="#F99800"/>
<path id="Vector_49" d="M86.5779 111.528C85.4848 112.346 84.3418 113.128 83.2968 114.007C83.2195 114.074 83.3226 114.206 83.4068 114.147C84.5326 113.388 85.5879 112.508 86.669 111.684C86.7601 111.614 86.6707 111.458 86.5779 111.528Z" fill="#F99800"/>
<path id="Vector_50" d="M91.0551 111.22C89.5787 112.198 88.0971 113.169 86.631 114.161C86.5399 114.221 86.6241 114.369 86.7152 114.309C88.1951 113.331 89.6577 112.332 91.1273 111.342C91.2012 111.292 91.1324 111.17 91.0551 111.22Z" fill="#F99800"/>
<path id="Vector_51" d="M93.299 111.879C92.0753 112.565 90.9667 113.649 90.4614 114.978C90.4201 115.088 90.5937 115.156 90.6487 115.055C91.3379 113.806 92.1526 112.793 93.4176 112.082C93.5499 112.008 93.4314 111.803 93.299 111.879Z" fill="#F99800"/>
<path id="Vector_52" d="M96.7559 111.827C95.9068 112.786 95.0423 113.735 94.2225 114.72C94.1348 114.823 94.2792 114.972 94.3754 114.871C95.2468 113.932 96.0804 112.958 96.9261 111.995C97.0275 111.88 96.859 111.71 96.7559 111.827Z" fill="#F99800"/>
<path id="Vector_53" d="M100.307 112.788C99.5624 113.319 98.8165 113.852 98.0706 114.383C97.9537 114.467 98.0671 114.663 98.1857 114.579C98.9317 114.048 99.6776 113.516 100.424 112.985C100.544 112.901 100.429 112.702 100.307 112.788Z" fill="#F99800"/>
<path id="Vector_54" d="M43.8654 108.147C45.3899 106.824 47.0382 105.965 48.9013 105.212C49.0165 105.165 48.9752 104.981 48.8481 105.019C46.942 105.59 45.2112 106.705 43.7331 108.017C43.6437 108.096 43.7743 108.226 43.8654 108.147Z" fill="#F99800"/>
<path id="Vector_55" d="M44.5348 109.21C46.0507 108.409 47.5495 107.558 49.0224 106.681C49.1995 106.575 49.0413 106.303 48.8609 106.405C47.3621 107.238 45.8754 108.106 44.4213 109.015C44.2976 109.093 44.4076 109.278 44.5348 109.21Z" fill="#F99800"/>
<path id="Vector_56" d="M45.7975 109.844C47.8084 108.962 49.8177 108.071 51.8234 107.178C51.997 107.1 51.8475 106.843 51.6756 106.922C49.6836 107.839 47.695 108.762 45.7099 109.692C45.6067 109.74 45.6961 109.886 45.7975 109.844Z" fill="#F99800"/>
<path id="Vector_57" d="M48.2693 111.301C50.3009 110.476 52.3342 109.653 54.3588 108.812C54.5428 108.737 54.4379 108.482 54.2523 108.561C52.231 109.412 50.2184 110.282 48.204 111.146C48.1163 111.184 48.1799 111.339 48.2693 111.301Z" fill="#F99800"/>
<path id="Vector_58" d="M53.0864 111.686C54.3669 111.265 55.6491 110.856 56.9209 110.411C57.0413 110.369 56.9914 110.179 56.8677 110.218C55.5838 110.626 54.3102 111.069 53.0366 111.502C52.9214 111.54 52.9695 111.724 53.0864 111.686Z" fill="#F99800"/>
<path id="Vector_59" d="M10.9227 92.0752C19.2775 88.5535 27.6547 85.4271 36.5217 83.4162C45.3011 81.4224 54.2816 80.3568 63.2724 79.9735C80.257 79.2482 97.5958 80.4324 114.147 84.4302C122.708 86.4979 131.321 89.253 138.88 93.8627C139.547 94.2701 140.157 93.2251 139.492 92.8177C132.883 88.7597 125.445 86.1112 117.987 84.0985C110.144 81.9827 102.106 80.5579 94.0311 79.6968C75.9963 77.7735 57.3066 77.8629 39.5003 81.553C29.6158 83.6018 19.5783 86.7179 10.8144 91.8174C10.682 91.8947 10.7714 92.1371 10.9227 92.0752Z" fill="#F99800"/>
<path id="Vector_60" d="M7.78326 108.211C14.5551 113.171 22.6144 115.553 30.7372 117.258C40.0167 119.209 49.4492 120.575 58.9058 121.318C77.9564 122.813 97.1514 121.784 115.917 118.159C124.975 116.409 134.453 113.877 141.799 108.044C142.164 107.757 141.695 107.173 141.308 107.41C134.215 111.734 126.463 114.517 118.335 116.158C109.023 118.039 99.5817 119.288 90.1045 119.926C71.5798 121.177 52.9555 119.919 34.6954 116.624C25.4761 114.959 16.023 112.896 7.97576 107.884C7.76436 107.75 7.58904 108.07 7.78326 108.211Z" fill="#F99800"/>
<path id="Vector_61" d="M13.3004 118.9C15.8579 122.679 18.5598 126.631 22.2448 129.403C22.4717 129.573 22.7639 129.195 22.549 129.01C19.0771 126.019 16.2567 122.38 13.4585 118.78C13.3881 118.69 13.2368 118.807 13.3004 118.9Z" fill="#F99800"/>
<path id="Vector_62" d="M60.4079 148.559C53.8749 147.159 47.5258 145.013 41.5566 142.002C38.6863 140.554 35.9019 138.956 33.2293 137.172C30.4621 135.322 27.9682 133.147 25.2715 131.209C24.9122 130.952 24.5187 131.507 24.8108 131.808C27.0521 134.114 29.8743 136.036 32.5435 137.811C35.364 139.686 38.3099 141.393 41.3676 142.854C47.378 145.726 53.7477 147.782 60.3202 148.878C60.5282 148.911 60.621 148.605 60.4079 148.559Z" fill="#F99800"/>
<path id="Vector_63" d="M99.1186 155.975C91.2862 158.292 83.0053 159.103 74.8601 159.187C70.5443 159.232 66.2217 159.034 61.93 158.587C57.6451 158.141 53.5201 157.142 49.2868 156.456C48.7454 156.37 48.5203 157.109 49.0565 157.288C52.9598 158.574 57.3271 159.014 61.3971 159.454C65.8676 159.937 70.3656 160.136 74.8601 160.066C83.0878 159.94 91.3876 158.94 99.2286 156.37C99.4795 156.288 99.3746 155.898 99.1186 155.975Z" fill="#F99800"/>
<path id="Vector_64" d="M155.392 14.116C155.727 12.0673 155.579 9.54758 153.865 8.11414C152.246 6.76149 149.709 6.81993 147.972 7.90274C147.592 8.13821 147.833 8.76039 148.281 8.63493C150.026 8.14164 151.928 7.47993 153.479 8.87383C154.97 10.2145 154.866 12.2495 155.096 14.0765C155.115 14.2243 155.361 14.2999 155.392 14.116Z" fill="#F99800"/>
<path id="Vector_65" d="M116.874 48.3535C117.807 46.1862 116.855 43.5582 115.377 41.8498C113.951 40.2015 110.981 38.5893 109.05 40.3046C108.494 40.7996 109.207 41.6573 109.829 41.3118C111.716 40.2651 113.866 41.8498 115.02 43.3227C116.178 44.8026 116.463 46.4921 116.687 48.3037C116.697 48.3862 116.829 48.4566 116.874 48.3535Z" fill="#F99800"/>
<path id="Vector_66" d="M141.892 98.0084C143.578 99.313 142.878 101.838 141.496 103.053C140.034 104.339 138.186 105.203 136.386 105.904C132.853 107.281 129.121 108.156 125.445 109.062C114.546 111.748 103.398 113.133 92.1991 113.733C80.9344 114.337 69.6646 114.268 58.4153 113.446C47.6886 112.663 36.8502 111.477 26.4191 108.776C21.8489 107.592 17.2032 106.124 13.1589 103.632C11.0294 102.319 8.70394 100.511 8.31378 97.9019C8.0405 96.0817 4.823 96.4925 5.06362 98.3419C5.95565 105.258 14.5477 108.501 20.2367 110.404C31.1663 114.06 42.9775 115.382 54.4124 116.329C66.7891 117.355 79.2208 117.363 91.6147 116.59C103.579 115.844 115.725 114.441 127.251 111.035C131.61 109.748 136.148 108.548 140.039 106.116C143.021 104.254 147.904 99.4453 143.707 96.1969C142.418 95.1983 140.587 96.9995 141.892 98.0084Z" fill="#F99800"/>
<path id="Vector_67" d="M1.66015 93.7749C0.0874938 96.9236 0.121869 99.7338 0.671869 103.159C1.22359 106.602 2.19296 109.978 3.49406 113.211C6.16327 119.841 10.1405 125.893 14.8292 131.271C24.5109 142.378 37.7848 150.131 51.8923 154.179C67.0345 158.522 83.3781 158.36 98.4962 153.983C112.526 149.92 124.406 141.738 133.507 130.379C138.148 124.585 141.537 118.265 144.559 111.518C146.253 107.736 147.953 103.766 148.677 99.6668C149.299 96.1399 148.294 93.6821 145.956 91.0438C145.176 90.1638 143.572 91.36 144.301 92.3174C145.14 93.4208 146.013 94.5793 146.4 95.9268C146.845 97.4771 146.534 99.1047 146.19 100.643C145.42 104.091 144.11 107.466 142.675 110.689C140.181 116.292 136.706 121.624 132.911 126.431C124.908 136.565 113.812 144.542 101.592 148.783C74.8153 158.08 43.0442 152.553 22.1786 132.971C16.7542 127.882 12.038 122.047 8.58327 115.445C6.87312 112.176 5.47406 108.742 4.51843 105.175C4.04234 103.4 3.61265 101.559 3.43734 99.7252C3.27062 97.9772 3.66077 96.5094 4.33624 94.9024C4.97562 93.3796 2.39577 92.3002 1.66015 93.7749Z" fill="#F99800"/>
<g id="Clip path group">
<mask id="mask0_2137_2037" style="mask-type:luminance" maskUnits="userSpaceOnUse" x="46" y="150" width="57" height="15">
<g id="6180460ea2">
<path id="Vector_68" d="M46.6406 150.04H102.081V164.876H46.6406V150.04Z" fill="white"/>
</g>
</mask>
<g mask="url(#mask0_2137_2037)">
<g id="Group">
<path id="Vector_69" d="M47.1608 151.228C48.0631 152.446 47.9377 154.935 48.1147 156.381C48.2814 157.749 48.2797 159.5 49.2955 160.547C50.2803 161.563 51.6381 161.944 52.9736 162.242C54.7714 162.642 56.5916 162.969 58.41 163.268C61.7633 163.819 65.1424 164.211 68.5335 164.445C74.4769 164.856 80.4392 164.749 86.3672 164.151C88.8955 163.895 91.4203 163.556 93.928 163.141C96.0163 162.793 99.3661 162.553 100.578 160.459C101.238 159.321 101.174 157.417 101.379 156.152C101.53 155.226 101.704 154.299 101.826 153.368C101.874 153 101.915 152.634 101.906 152.264C101.894 151.824 102.022 151.061 101.831 152.185C102.128 150.436 99.4417 149.681 99.1427 151.448C99.22 150.986 98.9038 152.034 98.8281 152.295C98.6339 152.971 98.5531 153.689 98.4311 154.38C98.1785 155.812 97.9464 157.247 97.6731 158.675C97.6508 158.785 97.6525 159.038 97.5906 159.136C97.8983 158.653 97.3431 158.988 97.0389 159.122C96.0747 159.545 94.8853 159.621 93.8558 159.804C91.5217 160.217 89.1756 160.557 86.8192 160.813C81.5633 161.387 76.2661 161.566 70.9827 161.408C67.9903 161.319 65.0066 161.097 62.0314 160.781C58.826 160.444 55.318 160.25 52.2139 159.361C50.9421 158.997 50.9214 158.868 50.6344 157.759C50.3886 156.814 50.1635 155.862 49.9228 154.916C49.5688 153.531 49.2628 151.489 48.1508 150.463C47.6541 150.002 46.7122 150.625 47.1608 151.228Z" fill="#F99800"/>
</g>
</g>
</g>
<path id="Vector_70" d="M4.07095 104.804C3.48657 102.609 2.65814 99.6428 3.25626 97.3586C3.86814 95.0245 6.25204 92.754 8.01376 91.2278C12.3914 87.4345 18.175 85.4029 23.5856 83.5897C35.1064 79.7293 47.0861 77.8937 59.1964 77.3076C70.2325 76.7731 81.3597 76.6115 92.3734 77.617C100.794 78.3853 109.272 79.8703 117.483 81.8692C123.034 83.2201 128.553 84.8959 133.771 87.2386C138.897 89.5383 144.764 91.6798 146.897 97.3311C147.226 98.2025 148.786 98.1818 148.669 97.0922C148.111 91.9428 143.188 88.5637 139.06 86.1283C134.411 83.3886 129.074 81.5598 123.925 80.0112C114.819 77.2715 105.34 75.5751 95.9123 74.3823C84.4878 72.9368 72.8656 73.0606 61.3827 73.5573C48.2102 74.1262 35.158 75.8828 22.6197 80.092C16.2981 82.2147 9.66204 84.8014 4.9922 89.7462C3.19095 91.6523 1.0047 94.3026 0.710793 97.0148C0.408293 99.8078 1.69735 102.853 2.80595 105.337C3.13079 106.066 4.26689 105.542 4.07095 104.804Z" fill="#F99800"/>
<path id="Vector_71" d="M26.7919 109.139C27.1649 108.065 29.4766 107.649 30.4081 107.446C32.1252 107.07 33.6033 107.934 35.3306 107.761C36.2708 107.666 37.0253 107.312 37.8314 106.848C38.8833 106.239 39.3646 106.1 40.5556 106.166C42.4549 106.272 44.1221 104.919 45.6741 103.993C46.9597 103.225 45.7617 101.179 44.4985 101.987C43.5566 102.591 42.5546 103.477 41.4821 103.842C40.4319 104.199 39.3835 103.783 38.3213 104.217C36.9635 104.77 36.0714 105.875 34.4971 105.867C33.483 105.861 32.5377 105.469 31.5253 105.549C30.415 105.636 24.5764 107.334 26.156 109.307C26.3485 109.548 26.7077 109.381 26.7919 109.139Z" fill="#F99800"/>
<path id="Vector_72" d="M84.2024 96.355C85.684 97.2952 87.0796 98.6014 88.6798 99.3216C89.9482 99.8922 91.3696 99.5828 92.4851 100.494C94.4255 102.077 95.5393 104.521 98.1174 105.236C99.8482 105.717 100.592 103.019 98.8582 102.553C96.6393 101.956 95.4585 99.1325 93.5696 97.9122C92.4524 97.1903 91.3902 97.3381 90.1734 97.0081C88.5337 96.5612 86.9559 94.992 85.5087 94.1241C84.0752 93.2647 82.8016 95.4664 84.2024 96.355Z" fill="#F99800"/>
<path id="Vector_73" d="M88.9588 104.12C88.8952 104.134 88.8351 104.149 88.7715 104.165C88.4965 104.23 88.2249 104.546 88.2541 104.844C88.3349 105.65 88.9536 106.153 89.7546 106.215C91.5765 106.355 93.749 105.743 95.564 105.512C97.5319 105.263 99.5515 104.825 101.501 105.409C103.113 105.889 104.553 106.836 106.09 107.499C107.329 108.034 108.626 108.412 109.984 108.273C110.747 108.195 111.414 107.924 112.131 107.671C112.305 107.611 112.916 107.317 113.088 107.427C113.228 107.515 113.277 108.097 113.331 108.259C114.226 110.975 116.497 112.824 119.372 113.01C121.077 113.121 120.993 110.607 119.372 110.407C118.033 110.242 116.773 109.447 116.144 108.245C115.611 107.229 115.625 106.083 114.635 105.334C113.681 104.61 112.497 104.797 111.442 105.175C110.008 105.691 108.987 105.899 107.502 105.365C104.883 104.423 102.748 102.821 99.8419 102.867C98.8554 102.883 89.6119 104.54 89.6377 104.656C89.4744 104.945 89.3094 105.234 89.1461 105.521C89.2063 105.499 89.2665 105.475 89.3266 105.452C90.1413 105.138 89.8405 103.905 88.9588 104.12Z" fill="#F99800"/>
<path id="Vector_74" d="M150.613 6.83894C152.493 6.4866 154.217 6.82347 155.503 8.34629C156.861 9.95504 156.103 11.6824 156.044 13.5283C156.006 14.6489 157.778 15.235 158.267 14.1299C159.423 11.5105 159.081 8.37035 156.861 6.42988C154.997 4.79879 152.033 4.06832 150.046 5.86957C149.583 6.29066 150.084 6.94035 150.613 6.83894Z" fill="#F99800"/>
<path id="Vector_75" d="M107.351 42.7696C108.667 43.3712 110.2 43.5001 111.237 44.607C112.619 46.0851 112.653 47.7901 112.661 49.6584C112.67 51.0952 114.519 51.1537 115.006 49.9746C115.941 47.7093 114.71 44.9645 113.124 43.2956C111.711 41.8071 109.465 41.3018 107.49 41.7074C107.022 41.8037 106.899 42.5634 107.351 42.7696Z" fill="#F99800"/>
<path id="Vector_76" d="M114.555 50.5484C119.973 47.3549 124.722 42.9463 129.526 38.9296C137.282 32.4413 144.945 25.8448 152.6 19.2345C154.358 17.7168 156.094 16.1648 157.851 14.6488C159.319 13.3821 157.182 11.2646 155.723 12.5245C156.092 12.2048 155.917 12.3663 155.663 12.5605C155.29 12.851 154.934 13.1535 154.575 13.4629C153.535 14.3618 152.493 15.2607 151.452 16.1596C148.097 19.0574 144.726 21.938 141.389 24.853C133.833 31.4496 126.095 37.9293 118.883 44.9023C117.211 46.5196 115.556 48.1404 114.093 49.9502C113.839 50.2682 114.157 50.7821 114.555 50.5484Z" fill="#F99800"/>
<path id="Vector_77" d="M150.884 5.20099C149.23 5.81802 147.761 7.17412 146.372 8.23974C142.919 10.8883 139.561 13.6504 136.19 16.4021C128.327 22.8268 120.558 29.3666 112.788 35.9047C110.906 37.4894 108.17 39.1377 106.949 41.3394C106.741 41.7158 106.705 42.2194 106.949 42.5941C106.951 42.5941 106.951 42.5958 106.951 42.5976C107.015 42.1043 107.08 41.611 107.143 41.116C107.133 41.1246 107.123 41.1315 107.114 41.1418C105.909 42.1576 107.647 43.8041 108.845 42.7952C108.854 42.7849 108.862 42.6955 108.872 42.6955C108.297 42.6955 107.719 42.6955 107.143 42.6955L107.145 42.7711C107.455 43.0599 107.932 43.2765 108.355 43.1269C110.397 42.4102 112.133 40.5333 113.755 39.1601C117.2 36.2502 120.646 33.3472 124.09 30.4357C131.723 23.9835 139.367 17.5107 146.747 10.7697C148.313 9.34146 150.502 7.6399 151.473 5.96412C151.685 5.59802 151.326 5.03771 150.884 5.20099Z" fill="#F99800"/>
<path id="Vector_78" d="M157.546 11.4417C158.935 11.0086 160.21 9.74184 161.315 8.84122C162.651 7.75153 164.4 6.76325 164.735 4.92762C165.236 2.18278 162.712 0.202779 160.15 0.871373C158.866 1.20653 157.876 2.0745 156.877 2.89778C156.133 3.51309 155.251 4.10778 154.619 4.8434C153.943 5.62543 154.81 6.97809 155.786 6.35247C156.974 5.59106 157.953 4.47387 159.06 3.60247C160.139 2.7534 162.742 1.76512 162.817 4.06309C162.84 4.78668 162.463 5.20434 162.004 5.64606C160.413 7.18434 157.895 8.53184 156.857 10.5428C156.623 10.9948 157.011 11.6084 157.546 11.4417Z" fill="#F99800"/>
<path id="Vector_79" d="M113.746 48.1972C108.959 54.6374 105.073 61.8407 101.043 68.7707C98.1174 73.798 94.7281 78.5383 91.3507 83.27C86.7118 89.7635 82.3995 96.8482 76.1827 101.97C69.4315 107.532 59.8477 110.615 51.7249 106.025C44.281 101.817 42.057 91.783 44.9685 84.1449C47.7013 76.9777 55.1281 72.435 61.4737 68.8102C67.8365 65.175 74.3213 61.7513 80.8285 58.386C90.3659 53.4532 100.106 48.8882 109.606 43.8917C109.769 43.8058 109.939 43.7285 110.106 43.6477C111.833 42.8038 110.319 40.2291 108.597 41.0713C99.7485 45.3957 90.9726 49.8833 82.274 54.5016C75.3715 58.166 68.5034 61.9008 61.7418 65.8178C55.2071 69.6042 48.0416 73.8633 44.116 80.5596C39.9859 87.603 40.0735 97.6078 45.0218 104.244C50.4754 111.559 60.6177 113.144 68.8695 110.081C77.6145 106.836 83.551 99.8817 88.7588 92.4963C93.3806 85.9444 98.2687 79.5146 102.296 72.5708C104.216 69.2622 105.977 65.8574 107.799 62.4955C110.092 58.2622 112.527 53.943 114.358 49.4846C114.478 49.1924 114.599 48.8985 114.719 48.6063C114.965 48.0047 114.074 47.7572 113.746 48.1972Z" fill="#F99800"/>
<path id="Vector_80" d="M113.045 46.2466C109.257 50.2135 105.69 54.4072 102.083 58.5391C95.2645 66.3474 88.3568 74.0921 81.212 81.6082C77.8862 85.1058 74.5226 88.6447 70.8152 91.7488C65.1949 96.4547 58.6671 100.219 51.8419 102.888C50.5288 103.4 47.7599 105.047 46.8885 103.264C46.0807 101.611 47.5605 99.5382 48.3769 98.1786C50.3243 94.9457 52.5415 91.8399 54.9134 88.9025C59.5299 83.1843 65.1227 78.3958 70.7602 73.7105C77.362 68.2277 84.218 63.0405 91.301 58.1919C98.133 53.5118 105.297 49.4693 112.375 45.1913C113.49 44.5175 112.517 42.9655 111.373 43.4794C104.233 46.6986 97.5504 51.1399 91.081 55.521C84.4277 60.0258 77.9893 64.8418 71.7674 69.9241C65.7552 74.8346 59.6726 79.8688 54.6315 85.7985C52.1049 88.7736 49.7571 91.9 47.6173 95.164C45.9673 97.6802 43.243 100.942 44.5768 104.141C46.0429 107.663 49.4941 106.46 52.2544 105.403C55.7194 104.074 59.0745 102.486 62.2834 100.623C68.0498 97.2763 73.1338 93.1066 77.8054 88.3766C85.5518 80.5322 92.7551 72.1585 99.8862 63.7589C104.602 58.2074 109.437 52.6627 113.676 46.733C113.944 46.36 113.356 45.9218 113.045 46.2466Z" fill="#F99800"/>
<path id="Vector_81" d="M112.639 45.4677C108.275 49.2009 104.379 53.5304 100.275 57.5454C92.1828 65.4688 83.9895 73.3063 75.4112 80.7073C71.6609 83.9454 67.8229 87.1234 63.7134 89.8991C60.6884 91.941 57.5001 93.9038 53.755 94.1066C51.3522 94.2373 49.3601 93.4862 49.2536 90.829C49.159 88.5345 49.9823 86.032 51.1442 84.0571C53.0761 80.7743 56.0392 78.0965 58.9112 75.6524C64.2737 71.0874 70.1518 67.1309 76.0609 63.3135C84.6667 57.7534 93.7211 52.8773 102.25 47.2071C103.313 46.5007 102.392 44.9195 101.247 45.497C92.6159 49.8437 84.3745 55.189 76.2534 60.4174C70.4853 64.1299 64.7687 67.9713 59.3993 72.2459C55.9498 74.9941 52.5209 77.9607 49.9497 81.5718C47.5589 84.9302 44.9275 91.1349 48.0247 94.7374C51.0634 98.2712 57.1512 96.5799 60.7073 94.7512C64.6965 92.7024 68.2973 89.8321 71.764 87.022C80.9954 79.5334 89.5634 71.1682 97.8254 62.6381C101.251 59.1009 104.639 55.5259 107.988 51.9182C109.099 50.7254 110.182 49.5085 111.261 48.2882C111.844 47.6299 112.552 46.951 112.981 46.1759C113.036 46.0745 113.124 45.9851 113.191 45.8923C113.442 45.5537 112.923 45.2271 112.639 45.4677Z" fill="#F99800"/>
<path id="Vector_82" d="M112.611 44.4054C102.365 52.597 92.1269 60.792 81.9759 69.1004C76.9847 73.1825 72.033 77.3178 67.1036 81.472C64.412 83.7425 61.6895 85.9906 59.1286 88.4089C56.7619 90.6432 54.237 93.034 52.9445 96.0762C51.9133 98.5048 50.9439 101.384 52.5028 103.78C53.553 105.394 55.5794 107.197 57.6195 107.248C60.4572 107.32 63.5011 105.966 65.9589 104.687C68.6023 103.312 70.9055 101.544 73.1227 99.5739C81.8298 91.8464 89.6656 83.0361 97.0889 74.0934C100.442 70.0509 103.765 65.9723 106.942 61.794C107.931 60.4964 108.91 59.2056 109.808 57.8426C110.045 57.4817 110.285 57.1207 110.517 56.7581C110.715 56.4539 110.762 56.38 110.78 56.3542C111.535 55.3401 109.83 54.3604 109.082 55.3642C108.969 55.5154 109.215 55.1923 109 55.4415C108.771 55.7062 108.544 55.9726 108.314 56.2356C107.563 57.1018 106.831 57.9732 106.121 58.8739C103.658 62.0071 101.197 65.1387 98.6942 68.2393C91.8467 76.7196 84.8377 85.1329 77.1875 92.912C73.31 96.8548 69.3328 100.918 64.3364 103.429C62.2636 104.471 58.6851 106.299 56.437 104.95C55.4642 104.364 54.5241 103.475 54.017 102.448C53.3037 101.009 53.9998 99.3504 54.5172 97.9376C55.6739 94.7803 58.1798 92.5167 60.5741 90.2651C63.1075 87.8829 65.7561 85.6314 68.403 83.3781C72.8992 79.5539 77.4281 75.7692 81.9605 71.9896C92.5325 63.1776 103.065 54.3003 113.278 45.0706C113.735 44.6564 113.073 44.0359 112.611 44.4054Z" fill="#F99800"/>
<path id="Vector_83" d="M84.126 150.292C89.5349 149.799 94.9008 148.835 100.165 147.491C105.353 146.164 110.784 144.639 115.596 142.255C115.804 142.152 115.658 141.805 115.438 141.881C110.39 143.605 105.5 145.595 100.325 146.963C94.9988 148.371 89.5864 149.363 84.126 150.088C83.9971 150.105 83.9919 150.306 84.126 150.292Z" fill="#F99800"/>
<path id="Vector_84" d="M90.3538 146.566C102.672 144.825 115.314 141.372 126.413 135.659C126.674 135.525 126.444 135.162 126.188 135.274C120.322 137.819 114.506 140.294 108.382 142.173C102.459 143.99 96.4124 145.365 90.2988 146.363C90.1648 146.384 90.2232 146.583 90.3538 146.566Z" fill="#F99800"/>
<path id="Vector_85" d="M97.0568 142.522C102.809 141.642 108.474 140.307 114 138.478C119.294 136.726 124.701 134.645 129.529 131.835C129.777 131.692 129.56 131.342 129.311 131.459C124.045 133.934 118.869 136.407 113.337 138.256C108.009 140.035 102.54 141.379 96.9984 142.309C96.8574 142.333 96.9176 142.543 97.0568 142.522Z" fill="#F99800"/>
<path id="Vector_86" d="M104.733 137.61C115.123 135.484 125.37 131.956 134.658 126.803C134.849 126.698 134.681 126.418 134.488 126.514C124.947 131.27 115.085 135.027 104.664 137.358C104.499 137.395 104.57 137.645 104.733 137.61Z" fill="#F99800"/>
<path id="Vector_87" d="M112.334 132.079C121.935 130.422 131.914 126.428 139.39 120.058C139.545 119.924 139.339 119.652 139.167 119.771C135.136 122.573 131.145 125.243 126.663 127.297C122.072 129.403 117.248 130.943 112.303 131.969C112.231 131.983 112.262 132.091 112.334 132.079Z" fill="#F99800"/>
<path id="Vector_88" d="M120.973 126.546C128.109 124.79 135.931 121.971 140.697 116.072C140.852 115.881 140.596 115.608 140.421 115.797C135.12 121.485 128.211 124.143 120.928 126.381C120.822 126.414 120.866 126.572 120.973 126.546Z" fill="#F99800"/>
<path id="Vector_89" d="M111.39 95.9971C121.084 98.2161 130.118 101.611 138.639 106.787C138.993 107.001 139.317 106.445 138.964 106.232C130.651 101.198 121.134 97.0267 111.421 95.7651C111.289 95.7479 111.261 95.9679 111.39 95.9971Z" fill="#F99800"/>
<path id="Vector_90" d="M122.101 95.1243C126.354 96.8018 130.674 98.0444 134.773 100.141C136.847 101.203 138.712 102.642 140.773 103.713C141.088 103.876 141.313 103.453 141.045 103.251C139.085 101.766 136.727 100.509 134.512 99.4504C130.612 97.589 126.403 95.7997 122.133 95.0125C122.058 94.9988 122.032 95.0968 122.101 95.1243Z" fill="#F99800"/>
<path id="Vector_91" d="M129.784 94.2116C134.452 95.9097 138.828 98.0994 142.716 101.216C143.036 101.472 143.493 101.02 143.17 100.762C139.251 97.6302 134.686 95.3133 129.867 93.9177C129.674 93.8627 129.604 94.1446 129.784 94.2116Z" fill="#F99800"/>
<path id="Vector_92" d="M152.753 9.39621C154.358 10.8021 154.387 12.8406 154.477 14.812C154.487 15.0182 154.8 15.02 154.798 14.812C154.791 12.7993 154.554 10.6114 152.863 9.28621C152.786 9.22605 152.676 9.32918 152.753 9.39621Z" fill="#F99800"/>
<path id="Vector_93" d="M152.384 10.9692C153.513 12.5968 153.725 14.4015 153.285 16.3042C153.243 16.4795 153.498 16.55 153.555 16.3781C154.17 14.4943 153.697 12.4507 152.532 10.8832C152.468 10.7973 152.322 10.8781 152.384 10.9692Z" fill="#F99800"/>
<path id="Vector_94" d="M151.416 11.9504C152.243 13.7139 152.434 15.546 152.183 17.4642C152.164 17.6223 152.434 17.6584 152.465 17.502C152.841 15.5495 152.487 13.6107 151.595 11.8456C151.533 11.727 151.363 11.8318 151.416 11.9504Z" fill="#F99800"/>
<path id="Vector_95" d="M150.323 12.6947C151.155 14.4977 151.335 16.3419 150.797 18.2583C150.739 18.468 151.06 18.5556 151.12 18.3494C151.677 16.4209 151.459 14.3636 150.436 12.6277C150.392 12.5537 150.29 12.6191 150.323 12.6947Z" fill="#F99800"/>
<path id="Vector_96" d="M149.027 14.1318C150.154 15.9829 150.084 17.9406 149.267 19.8879C149.202 20.0443 149.456 20.1423 149.539 20.0013C150.615 18.1399 150.343 15.7904 149.197 14.0338C149.128 13.929 148.961 14.0235 149.027 14.1318Z" fill="#F99800"/>
<path id="Vector_97" d="M147.685 15.2128C148.662 17.0897 148.699 19.0508 148.084 21.0428C148.024 21.2336 148.309 21.3041 148.378 21.1236C149.139 19.135 148.856 16.9625 147.856 15.1149C147.795 15.0031 147.629 15.1028 147.685 15.2128Z" fill="#F99800"/>
<path id="Vector_98" d="M146.464 16.3918C147.317 18.2446 147.459 20.1834 147.009 22.1668C146.966 22.3541 147.251 22.4349 147.299 22.2459C147.825 20.216 147.561 18.1621 146.645 16.2852C146.586 16.1632 146.407 16.2681 146.464 16.3918Z" fill="#F99800"/>
<path id="Vector_99" d="M145.277 17.2768C146.217 18.7738 146.295 20.343 145.932 22.0308C145.893 22.2216 146.159 22.2921 146.223 22.1116C146.805 20.4547 146.36 18.6191 145.403 17.2029C145.351 17.1255 145.227 17.196 145.277 17.2768Z" fill="#F99800"/>
<path id="Vector_100" d="M144.172 18.5605C145.029 20.1469 145.105 21.7316 144.777 23.4727C144.744 23.648 144.99 23.7202 145.046 23.5466C145.596 21.8502 145.21 19.9802 144.323 18.4728C144.266 18.3749 144.118 18.4608 144.172 18.5605Z" fill="#F99800"/>
<path id="Vector_101" d="M142.897 19.7315C143.704 21.3472 143.937 23.0779 143.652 24.8586C143.624 25.027 143.882 25.1026 143.912 24.9308C144.242 23.0848 143.929 21.2939 143.049 19.6439C142.994 19.5442 142.846 19.6301 142.897 19.7315Z" fill="#F99800"/>
<path id="Vector_102" d="M141.785 21.244C142.577 23.0487 142.672 24.9755 142.247 26.8901C142.197 27.1153 142.538 27.2115 142.596 26.9847C143.11 24.972 142.837 23.0075 141.982 21.1272C141.921 20.9931 141.725 21.11 141.785 21.244Z" fill="#F99800"/>
<path id="Vector_103" d="M140.662 21.5102C141.419 23.0296 141.539 24.5335 141.391 26.1972C141.376 26.3691 141.663 26.4103 141.697 26.2385C142.02 24.5919 141.601 22.88 140.805 21.4277C140.753 21.3331 140.614 21.4174 140.662 21.5102Z" fill="#F99800"/>
<path id="Vector_104" d="M139.709 22.7373C140.596 24.2601 140.671 25.8585 140.211 27.5274C140.154 27.7319 140.451 27.8058 140.525 27.6133C141.165 25.953 140.848 24.1002 139.913 22.6187C139.831 22.4915 139.632 22.6066 139.709 22.7373Z" fill="#F99800"/>
<path id="Vector_105" d="M139.165 24.4439C139.64 25.8378 139.645 27.1681 139.399 28.605C139.37 28.7734 139.612 28.8473 139.66 28.6772C140.056 27.2558 139.896 25.7536 139.397 24.3786C139.346 24.2359 139.115 24.2961 139.165 24.4439Z" fill="#F99800"/>
<path id="Vector_106" d="M137.83 25.0524C138.655 26.7075 138.728 28.4383 138.325 30.2206C138.284 30.4149 138.566 30.4956 138.626 30.3031C139.193 28.4933 138.889 26.601 138.033 24.932C137.964 24.798 137.762 24.9183 137.83 25.0524Z" fill="#F99800"/>
<path id="Vector_107" d="M136.84 26.5032C137.313 28.2787 137.227 29.9166 136.881 31.7024C136.852 31.8537 137.067 31.9155 137.113 31.766C137.663 30.0404 137.543 28.167 137.053 26.443C137.014 26.309 136.804 26.3657 136.84 26.5032Z" fill="#F99800"/>
<path id="Vector_108" d="M134.907 26.1491C135.919 27.9211 136.158 29.8513 135.801 31.8433C135.768 32.0341 136.05 32.1183 136.096 31.9241C136.579 29.8839 136.167 27.8283 135.106 26.0339C135.031 25.905 134.833 26.0202 134.907 26.1491Z" fill="#F99800"/>
<path id="Vector_109" d="M134.336 28.2564C135.1 29.8548 135.223 31.4515 135.036 33.1875C135.017 33.3645 135.309 33.4023 135.347 33.2305C135.729 31.4945 135.354 29.6933 134.553 28.1292C134.477 27.9865 134.266 28.112 134.336 28.2564Z" fill="#F99800"/>
<path id="Vector_110" d="M133.354 29.3372C133.975 30.9012 134.016 32.4636 133.653 34.0929C133.612 34.282 133.889 34.3611 133.944 34.1737C134.43 32.5254 134.231 30.8187 133.55 29.2547C133.504 29.1429 133.31 29.2237 133.354 29.3372Z" fill="#F99800"/>
<path id="Vector_111" d="M131.901 28.734C132.577 30.1313 132.778 31.4771 133.03 32.9879C133.058 33.158 133.324 33.1133 133.324 32.9466C133.336 31.4599 132.728 29.9491 132.015 28.6669C131.973 28.5947 131.867 28.6583 131.901 28.734Z" fill="#F99800"/>
<path id="Vector_112" d="M131.013 30.4165C131.576 31.6488 131.703 32.8279 131.533 34.1634C131.508 34.361 131.844 34.4057 131.882 34.2098C132.149 32.8881 131.86 31.4753 131.155 30.334C131.098 30.2412 130.97 30.322 131.013 30.4165Z" fill="#F99800"/>
<path id="Vector_113" d="M129.585 31.5423C130.562 33.0032 130.667 34.4659 130.418 36.1623C130.391 36.3393 130.633 36.415 130.693 36.2362C131.241 34.6309 130.736 32.7712 129.789 31.422C129.703 31.3 129.5 31.4151 129.585 31.5423Z" fill="#F99800"/>
<path id="Vector_114" d="M128.973 33.538C129.651 34.882 129.677 36.178 129.421 37.6303C129.39 37.8056 129.634 37.8795 129.693 37.7042C130.157 36.2949 129.853 34.7067 129.177 33.4194C129.105 33.2836 128.906 33.4022 128.973 33.538Z" fill="#F99800"/>
<path id="Vector_115" d="M128.208 34.6709C128.589 35.9238 128.565 37.0926 128.445 38.3765C128.431 38.5243 128.663 38.5501 128.701 38.4109C129.033 37.1665 128.859 35.8087 128.473 34.597C128.419 34.4303 128.156 34.5007 128.208 34.6709Z" fill="#F99800"/>
<path id="Vector_116" d="M126.754 34.4267C127.357 35.9873 127.429 37.5118 127.185 39.1515C127.158 39.3303 127.422 39.4145 127.465 39.2271C127.831 37.5978 127.586 35.9031 126.946 34.3751C126.898 34.2582 126.706 34.3063 126.754 34.4267Z" fill="#F99800"/>
<path id="Vector_117" d="M125.639 34.5882C126.33 36.3189 126.477 38.0789 126.226 39.9163C126.202 40.1002 126.476 40.1861 126.513 39.9936C126.878 38.1202 126.599 36.245 125.859 34.4953C125.807 34.3716 125.587 34.4627 125.639 34.5882Z" fill="#F99800"/>
<path id="Vector_118" d="M124.885 36.6315C125.581 38.1629 125.569 39.6169 125.295 41.2429C125.268 41.413 125.5 41.4818 125.557 41.315C126.102 39.7493 125.773 37.9875 125.045 36.5386C124.991 36.4304 124.835 36.5249 124.885 36.6315Z" fill="#F99800"/>
<path id="Vector_119" d="M123.933 36.7298C124.136 37.4311 124.37 38.0962 124.439 38.8284C124.499 39.4747 124.42 40.1072 124.406 40.75C124.401 40.8892 124.611 40.915 124.647 40.7826C124.999 39.5073 124.712 37.8144 124.011 36.6972C123.987 36.6576 123.92 36.6834 123.933 36.7298Z" fill="#F99800"/>
<path id="Vector_120" d="M123.064 37.8059C123.585 39.0691 123.614 40.2534 123.545 41.594C123.538 41.7435 123.777 41.7762 123.807 41.6301C124.076 40.3376 123.745 38.9265 123.205 37.7474C123.169 37.6684 123.03 37.7251 123.064 37.8059Z" fill="#F99800"/>
<path id="Vector_121" d="M121.799 38.507C122.435 39.8373 122.415 41.0868 122.239 42.5134C122.217 42.6921 122.487 42.7076 122.54 42.5546C122.994 41.1951 122.645 39.6276 121.994 38.3918C121.927 38.2629 121.737 38.3781 121.799 38.507Z" fill="#F99800"/>
<path id="Vector_122" d="M120.475 39.344C121.291 41.0353 121.245 42.6664 120.815 44.4539C120.769 44.6464 121.033 44.7065 121.106 44.5329C121.816 42.8279 121.504 40.829 120.676 39.2271C120.607 39.0948 120.413 39.2117 120.475 39.344Z" fill="#F99800"/>
<path id="Vector_123" d="M119.057 40.2946C119.817 41.9703 119.769 43.5774 119.358 45.3339C119.312 45.5316 119.59 45.6038 119.659 45.4164C120.271 43.72 119.953 41.8105 119.169 40.2275C119.131 40.1519 119.023 40.2189 119.057 40.2946Z" fill="#F99800"/>
<path id="Vector_124" d="M117.597 40.908C118.64 42.4153 118.834 44.0688 118.492 45.8391C118.451 46.0471 118.757 46.1382 118.817 45.9268C119.307 44.1564 118.812 42.283 117.751 40.8186C117.684 40.7258 117.53 40.8118 117.597 40.908Z" fill="#F99800"/>
<path id="Vector_125" d="M116.438 41.9274C117.588 43.4073 117.857 44.9903 117.766 46.8139C117.758 46.9909 118.05 47.0373 118.081 46.8568C118.402 45.0659 117.68 43.1942 116.524 41.8415C116.472 41.7814 116.391 41.869 116.438 41.9274Z" fill="#F99800"/>
<path id="Vector_126" d="M31.0382 89.9696C22.3637 91.9839 13.5379 95.9078 6.55461 101.482C6.32946 101.661 6.6268 102.047 6.86399 101.882C10.5301 99.3505 14.1687 96.9271 18.1871 94.9711C22.3345 92.9516 26.6537 91.4064 31.0915 90.1638C31.217 90.1277 31.1654 89.9421 31.0382 89.9696Z" fill="#F99800"/>
<path id="Vector_127" d="M27.897 95.0124C21.6081 97.0681 15.2144 99.9659 9.95844 104.014C9.75907 104.168 9.95328 104.515 10.1613 104.359C15.6183 100.291 21.6528 97.6627 27.9297 95.1345C28.0036 95.1052 27.9761 94.9866 27.897 95.0124Z" fill="#F99800"/>
<path id="Vector_128" d="M30.3056 97.63C27.4713 98.7438 24.7093 100.141 22.0401 101.604C19.4156 103.042 16.6277 104.627 14.4432 106.695C14.2937 106.837 14.4931 107.109 14.6667 106.987C17.1674 105.227 19.5548 103.434 22.2257 101.922C24.8829 100.418 27.6638 99.1855 30.3743 97.7899C30.4602 97.7452 30.4001 97.5939 30.3056 97.63Z" fill="#F99800"/>
<path id="Vector_129" d="M30.8485 101.757C27.0466 103.568 22.9646 105.381 19.821 108.247C19.6388 108.413 19.9035 108.659 20.0874 108.511C23.4407 105.818 27.1034 103.835 30.9138 101.87C30.9895 101.831 30.9241 101.722 30.8485 101.757Z" fill="#F99800"/>
<path id="Vector_130" d="M86.7833 109.744C84.9666 110.634 83.1499 111.688 81.4534 112.791C81.2799 112.904 81.4311 113.161 81.615 113.066C83.4214 112.155 85.2467 111.115 86.9311 109.993C87.0858 109.89 86.9517 109.661 86.7833 109.744Z" fill="#F99800"/>
<path id="Vector_131" d="M86.5779 111.528C85.4848 112.346 84.3418 113.128 83.2968 114.007C83.2195 114.074 83.3226 114.206 83.4068 114.147C84.5326 113.388 85.5879 112.508 86.669 111.684C86.7601 111.614 86.6707 111.458 86.5779 111.528Z" fill="#F99800"/>
<path id="Vector_132" d="M91.0551 111.22C89.5787 112.198 88.0971 113.169 86.631 114.161C86.5399 114.221 86.6241 114.369 86.7152 114.309C88.1951 113.331 89.6577 112.332 91.1273 111.342C91.2012 111.292 91.1324 111.17 91.0551 111.22Z" fill="#F99800"/>
<path id="Vector_133" d="M93.299 111.879C92.0753 112.565 90.9667 113.649 90.4614 114.978C90.4201 115.088 90.5937 115.156 90.6487 115.055C91.3379 113.806 92.1526 112.793 93.4176 112.082C93.5499 112.008 93.4314 111.803 93.299 111.879Z" fill="#F99800"/>
<path id="Vector_134" d="M96.7559 111.827C95.9068 112.786 95.0423 113.735 94.2225 114.72C94.1348 114.823 94.2792 114.972 94.3754 114.871C95.2468 113.932 96.0804 112.958 96.9261 111.995C97.0275 111.88 96.859 111.71 96.7559 111.827Z" fill="#F99800"/>
<path id="Vector_135" d="M100.307 112.788C99.5624 113.319 98.8165 113.852 98.0706 114.383C97.9537 114.467 98.0671 114.663 98.1857 114.579C98.9317 114.048 99.6776 113.516 100.424 112.985C100.544 112.901 100.429 112.702 100.307 112.788Z" fill="#F99800"/>
<path id="Vector_136" d="M43.8654 108.147C45.3899 106.824 47.0382 105.965 48.9013 105.212C49.0165 105.165 48.9752 104.981 48.8481 105.019C46.942 105.59 45.2112 106.705 43.7331 108.017C43.6437 108.096 43.7743 108.226 43.8654 108.147Z" fill="#F99800"/>
<path id="Vector_137" d="M44.5348 109.21C46.0507 108.409 47.5495 107.558 49.0224 106.681C49.1995 106.575 49.0413 106.303 48.8609 106.405C47.3621 107.238 45.8754 108.106 44.4213 109.015C44.2976 109.093 44.4076 109.278 44.5348 109.21Z" fill="#F99800"/>
<path id="Vector_138" d="M45.7975 109.844C47.8084 108.962 49.8177 108.071 51.8234 107.178C51.997 107.1 51.8475 106.843 51.6756 106.922C49.6836 107.839 47.695 108.762 45.7099 109.692C45.6067 109.74 45.6961 109.886 45.7975 109.844Z" fill="#F99800"/>
<path id="Vector_139" d="M48.2693 111.301C50.3009 110.476 52.3342 109.653 54.3588 108.812C54.5428 108.737 54.4379 108.482 54.2523 108.561C52.231 109.412 50.2184 110.282 48.204 111.146C48.1163 111.184 48.1799 111.339 48.2693 111.301Z" fill="#F99800"/>
<path id="Vector_140" d="M53.0864 111.686C54.3669 111.265 55.6491 110.856 56.9209 110.411C57.0413 110.369 56.9914 110.179 56.8677 110.218C55.5838 110.626 54.3102 111.069 53.0366 111.502C52.9214 111.54 52.9695 111.724 53.0864 111.686Z" fill="#F99800"/>
<path id="Vector_141" d="M10.9227 92.0752C19.2775 88.5535 27.6547 85.4271 36.5217 83.4162C45.3011 81.4224 54.2816 80.3568 63.2724 79.9735C80.257 79.2482 97.5958 80.4324 114.147 84.4302C122.708 86.4979 131.321 89.253 138.88 93.8627C139.547 94.2701 140.157 93.2251 139.492 92.8177C132.883 88.7597 125.445 86.1112 117.987 84.0985C110.144 81.9827 102.106 80.5579 94.0311 79.6968C75.9963 77.7735 57.3066 77.8629 39.5003 81.553C29.6158 83.6018 19.5783 86.7179 10.8144 91.8174C10.682 91.8947 10.7714 92.1371 10.9227 92.0752Z" fill="#F99800"/>
<path id="Vector_142" d="M7.78326 108.211C14.5551 113.171 22.6144 115.553 30.7372 117.258C40.0167 119.209 49.4492 120.575 58.9058 121.318C77.9564 122.813 97.1514 121.784 115.917 118.159C124.975 116.409 134.453 113.877 141.799 108.044C142.164 107.757 141.695 107.173 141.308 107.41C134.215 111.734 126.463 114.517 118.335 116.158C109.023 118.039 99.5817 119.288 90.1045 119.926C71.5798 121.177 52.9555 119.919 34.6954 116.624C25.4761 114.959 16.023 112.896 7.97576 107.884C7.76436 107.75 7.58904 108.07 7.78326 108.211Z" fill="#F99800"/>
<path id="Vector_143" d="M13.3004 118.9C15.8579 122.679 18.5598 126.631 22.2448 129.403C22.4717 129.573 22.7639 129.195 22.549 129.01C19.0771 126.019 16.2567 122.38 13.4585 118.78C13.3881 118.69 13.2368 118.807 13.3004 118.9Z" fill="#F99800"/>
<path id="Vector_144" d="M60.4079 148.559C53.8749 147.159 47.5258 145.013 41.5566 142.002C38.6863 140.554 35.9019 138.956 33.2293 137.172C30.4621 135.322 27.9682 133.147 25.2715 131.209C24.9122 130.952 24.5187 131.507 24.8108 131.808C27.0521 134.114 29.8743 136.036 32.5435 137.811C35.364 139.686 38.3099 141.393 41.3676 142.854C47.378 145.726 53.7477 147.782 60.3202 148.878C60.5282 148.911 60.621 148.605 60.4079 148.559Z" fill="#F99800"/>
<path id="Vector_145" d="M99.1186 155.975C91.2862 158.292 83.0053 159.103 74.8601 159.187C70.5443 159.232 66.2217 159.034 61.93 158.587C57.6451 158.141 53.5201 157.142 49.2868 156.456C48.7454 156.37 48.5203 157.109 49.0565 157.288C52.9598 158.574 57.3271 159.014 61.3971 159.454C65.8676 159.937 70.3656 160.136 74.8601 160.066C83.0878 159.94 91.3876 158.94 99.2286 156.37C99.4795 156.288 99.3746 155.898 99.1186 155.975Z" fill="#F99800"/>
<path id="Vector_146" d="M155.392 14.116C155.727 12.0673 155.579 9.54758 153.865 8.11414C152.246 6.76149 149.709 6.81993 147.972 7.90274C147.592 8.13821 147.833 8.76039 148.281 8.63493C150.026 8.14164 151.928 7.47993 153.479 8.87383C154.97 10.2145 154.866 12.2495 155.096 14.0765C155.115 14.2243 155.361 14.2999 155.392 14.116Z" fill="#F99800"/>
<path id="Vector_147" d="M116.874 48.3535C117.807 46.1862 116.855 43.5582 115.377 41.8498C113.951 40.2015 110.981 38.5893 109.05 40.3046C108.494 40.7996 109.207 41.6573 109.829 41.3118C111.716 40.2651 113.866 41.8498 115.02 43.3227C116.178 44.8026 116.463 46.4921 116.687 48.3037C116.697 48.3862 116.829 48.4566 116.874 48.3535Z" fill="#F99800"/>
<path id="Vector_148" d="M141.892 98.0084C143.578 99.313 142.878 101.838 141.496 103.053C140.034 104.339 138.186 105.203 136.386 105.904C132.853 107.281 129.121 108.156 125.445 109.062C114.546 111.748 103.398 113.133 92.1991 113.733C80.9344 114.337 69.6646 114.268 58.4153 113.446C47.6886 112.663 36.8502 111.477 26.4191 108.776C21.8489 107.592 17.2032 106.124 13.1589 103.632C11.0294 102.319 8.70394 100.511 8.31378 97.9019C8.0405 96.0817 4.823 96.4925 5.06362 98.3419C5.95565 105.258 14.5477 108.501 20.2367 110.404C31.1663 114.06 42.9775 115.382 54.4124 116.329C66.7891 117.355 79.2208 117.363 91.6147 116.59C103.579 115.844 115.725 114.441 127.251 111.035C131.61 109.748 136.148 108.548 140.039 106.116C143.021 104.254 147.904 99.4453 143.707 96.1969C142.418 95.1983 140.587 96.9995 141.892 98.0084Z" fill="#F99800"/>
<path id="Vector_149" d="M1.66015 93.7749C0.0874938 96.9236 0.121869 99.7338 0.671869 103.159C1.22359 106.602 2.19296 109.978 3.49406 113.211C6.16327 119.841 10.1405 125.893 14.8292 131.271C24.5109 142.378 37.7848 150.131 51.8923 154.179C67.0345 158.522 83.3781 158.36 98.4962 153.983C112.526 149.92 124.406 141.738 133.507 130.379C138.148 124.585 141.537 118.265 144.559 111.518C146.253 107.736 147.953 103.766 148.677 99.6668C149.299 96.1399 148.294 93.6821 145.956 91.0438C145.176 90.1638 143.572 91.36 144.301 92.3174C145.14 93.4208 146.013 94.5793 146.4 95.9268C146.845 97.4771 146.534 99.1047 146.19 100.643C145.42 104.091 144.11 107.466 142.675 110.689C140.181 116.292 136.706 121.624 132.911 126.431C124.908 136.565 113.812 144.542 101.592 148.783C74.8153 158.08 43.0442 152.553 22.1786 132.971C16.7542 127.882 12.038 122.047 8.58327 115.445C6.87312 112.176 5.47406 108.742 4.51843 105.175C4.04234 103.4 3.61265 101.559 3.43734 99.7252C3.27062 97.9772 3.66077 96.5094 4.33624 94.9024C4.97562 93.3796 2.39577 92.3002 1.66015 93.7749Z" fill="#F99800"/>
<g id="Clip path group_2">
<mask id="mask1_2137_2037" style="mask-type:luminance" maskUnits="userSpaceOnUse" x="46" y="150" width="57" height="15">
<g id="6180460ea2_2">
<path id="Vector_150" d="M46.6406 150.04H102.081V164.876H46.6406V150.04Z" fill="white"/>
</g>
</mask>
<g mask="url(#mask1_2137_2037)">
<g id="Group_2">
<path id="Vector_151" d="M47.1608 151.228C48.0631 152.446 47.9377 154.935 48.1147 156.381C48.2814 157.749 48.2797 159.5 49.2955 160.547C50.2803 161.563 51.6381 161.944 52.9736 162.242C54.7714 162.642 56.5916 162.969 58.41 163.268C61.7633 163.819 65.1424 164.211 68.5335 164.445C74.4769 164.856 80.4392 164.749 86.3672 164.151C88.8955 163.895 91.4203 163.556 93.928 163.141C96.0163 162.793 99.3661 162.553 100.578 160.459C101.238 159.321 101.174 157.417 101.379 156.152C101.53 155.226 101.704 154.299 101.826 153.368C101.874 153 101.915 152.634 101.906 152.264C101.894 151.824 102.022 151.061 101.831 152.185C102.128 150.436 99.4417 149.681 99.1427 151.448C99.22 150.986 98.9038 152.034 98.8281 152.295C98.6339 152.971 98.5531 153.689 98.4311 154.38C98.1785 155.812 97.9464 157.247 97.6731 158.675C97.6508 158.785 97.6525 159.038 97.5906 159.136C97.8983 158.653 97.3431 158.988 97.0389 159.122C96.0747 159.545 94.8853 159.621 93.8558 159.804C91.5217 160.217 89.1756 160.557 86.8192 160.813C81.5633 161.387 76.2661 161.566 70.9827 161.408C67.9903 161.319 65.0066 161.097 62.0314 160.781C58.826 160.444 55.318 160.25 52.2139 159.361C50.9421 158.997 50.9214 158.868 50.6344 157.759C50.3886 156.814 50.1635 155.862 49.9228 154.916C49.5688 153.531 49.2628 151.489 48.1508 150.463C47.6541 150.002 46.7122 150.625 47.1608 151.228Z" fill="#F99800"/>
</g>
</g>
</g>
<path id="Vector_152" d="M4.07095 104.804C3.48657 102.609 2.65814 99.6428 3.25626 97.3586C3.86814 95.0245 6.25204 92.754 8.01376 91.2278C12.3914 87.4345 18.175 85.4029 23.5856 83.5897C35.1064 79.7293 47.0861 77.8937 59.1964 77.3076C70.2325 76.7731 81.3597 76.6115 92.3734 77.617C100.794 78.3853 109.272 79.8703 117.483 81.8692C123.034 83.2201 128.553 84.8959 133.771 87.2386C138.897 89.5383 144.764 91.6798 146.897 97.3311C147.226 98.2025 148.786 98.1818 148.669 97.0922C148.111 91.9428 143.188 88.5637 139.06 86.1283C134.411 83.3886 129.074 81.5598 123.925 80.0112C114.819 77.2715 105.34 75.5751 95.9123 74.3823C84.4878 72.9368 72.8656 73.0606 61.3827 73.5573C48.2102 74.1262 35.158 75.8828 22.6197 80.092C16.2981 82.2147 9.66204 84.8014 4.9922 89.7462C3.19095 91.6523 1.0047 94.3026 0.710793 97.0148C0.408293 99.8078 1.69735 102.853 2.80595 105.337C3.13079 106.066 4.26689 105.542 4.07095 104.804Z" fill="#F99800"/>
<path id="Vector_153" d="M26.7919 109.139C27.1649 108.065 29.4766 107.649 30.4081 107.446C32.1252 107.07 33.6033 107.934 35.3306 107.761C36.2708 107.666 37.0253 107.312 37.8314 106.848C38.8833 106.239 39.3646 106.1 40.5556 106.166C42.4549 106.272 44.1221 104.919 45.6741 103.993C46.9597 103.225 45.7617 101.179 44.4985 101.987C43.5566 102.591 42.5546 103.477 41.4821 103.842C40.4319 104.199 39.3835 103.783 38.3213 104.217C36.9635 104.77 36.0714 105.875 34.4971 105.867C33.483 105.861 32.5377 105.469 31.5253 105.549C30.415 105.636 24.5764 107.334 26.156 109.307C26.3485 109.548 26.7077 109.381 26.7919 109.139Z" fill="#F99800"/>
<path id="Vector_154" d="M84.2024 96.355C85.684 97.2952 87.0796 98.6014 88.6798 99.3216C89.9482 99.8922 91.3696 99.5828 92.4851 100.494C94.4255 102.077 95.5393 104.521 98.1174 105.236C99.8482 105.717 100.592 103.019 98.8582 102.553C96.6393 101.956 95.4585 99.1325 93.5696 97.9122C92.4524 97.1903 91.3902 97.3381 90.1734 97.0081C88.5337 96.5612 86.9559 94.992 85.5087 94.1241C84.0752 93.2647 82.8016 95.4664 84.2024 96.355Z" fill="#F99800"/>
<path id="Vector_155" d="M88.9588 104.12C88.8952 104.134 88.8351 104.149 88.7715 104.165C88.4965 104.23 88.2249 104.546 88.2541 104.844C88.3349 105.65 88.9536 106.153 89.7546 106.215C91.5765 106.355 93.749 105.743 95.564 105.512C97.5319 105.263 99.5515 104.825 101.501 105.409C103.113 105.889 104.553 106.836 106.09 107.499C107.329 108.034 108.626 108.412 109.984 108.273C110.747 108.195 111.414 107.924 112.131 107.671C112.305 107.611 112.916 107.317 113.088 107.427C113.228 107.515 113.277 108.097 113.331 108.259C114.226 110.975 116.497 112.824 119.372 113.01C121.077 113.121 120.993 110.607 119.372 110.407C118.033 110.242 116.773 109.447 116.144 108.245C115.611 107.229 115.625 106.083 114.635 105.334C113.681 104.61 112.497 104.797 111.442 105.175C110.008 105.691 108.987 105.899 107.502 105.365C104.883 104.423 102.748 102.821 99.8419 102.867C98.8554 102.883 89.6119 104.54 89.6377 104.656C89.4744 104.945 89.3094 105.234 89.1461 105.521C89.2063 105.499 89.2665 105.475 89.3266 105.452C90.1413 105.138 89.8405 103.905 88.9588 104.12Z" fill="#F99800"/>
<path id="Vector_156" d="M150.613 6.83894C152.493 6.4866 154.217 6.82347 155.503 8.34629C156.861 9.95504 156.103 11.6824 156.044 13.5283C156.006 14.6489 157.778 15.235 158.267 14.1299C159.423 11.5105 159.081 8.37035 156.861 6.42988C154.997 4.79879 152.033 4.06832 150.046 5.86957C149.583 6.29066 150.084 6.94035 150.613 6.83894Z" fill="#F99800"/>
<path id="Vector_157" d="M107.351 42.7696C108.667 43.3712 110.2 43.5001 111.237 44.607C112.619 46.0851 112.653 47.7901 112.661 49.6584C112.67 51.0952 114.519 51.1537 115.006 49.9746C115.941 47.7093 114.71 44.9645 113.124 43.2956C111.711 41.8071 109.465 41.3018 107.49 41.7074C107.022 41.8037 106.899 42.5634 107.351 42.7696Z" fill="#F99800"/>
<path id="Vector_158" d="M114.555 50.5484C119.973 47.3549 124.722 42.9463 129.526 38.9296C137.282 32.4413 144.945 25.8448 152.6 19.2345C154.358 17.7168 156.094 16.1648 157.851 14.6488C159.319 13.3821 157.182 11.2646 155.723 12.5245C156.092 12.2048 155.917 12.3663 155.663 12.5605C155.29 12.851 154.934 13.1535 154.575 13.4629C153.535 14.3618 152.493 15.2607 151.452 16.1596C148.097 19.0574 144.726 21.938 141.389 24.853C133.833 31.4496 126.095 37.9293 118.883 44.9023C117.211 46.5196 115.556 48.1404 114.093 49.9502C113.839 50.2682 114.157 50.7821 114.555 50.5484Z" fill="#F99800"/>
<path id="Vector_159" d="M150.884 5.20099C149.23 5.81802 147.761 7.17412 146.372 8.23974C142.919 10.8883 139.561 13.6504 136.19 16.4021C128.327 22.8268 120.558 29.3666 112.788 35.9047C110.906 37.4894 108.17 39.1377 106.949 41.3394C106.741 41.7158 106.705 42.2194 106.949 42.5941C106.951 42.5941 106.951 42.5958 106.951 42.5976C107.015 42.1043 107.08 41.611 107.143 41.116C107.133 41.1246 107.123 41.1315 107.114 41.1418C105.909 42.1576 107.647 43.8041 108.845 42.7952C108.854 42.7849 108.862 42.6955 108.872 42.6955C108.297 42.6955 107.719 42.6955 107.143 42.6955L107.145 42.7711C107.455 43.0599 107.932 43.2765 108.355 43.1269C110.397 42.4102 112.133 40.5333 113.755 39.1601C117.2 36.2502 120.646 33.3472 124.09 30.4357C131.723 23.9835 139.367 17.5107 146.747 10.7697C148.313 9.34146 150.502 7.6399 151.473 5.96412C151.685 5.59802 151.326 5.03771 150.884 5.20099Z" fill="#F99800"/>
<path id="Vector_160" d="M157.546 11.4417C158.935 11.0086 160.21 9.74184 161.315 8.84122C162.651 7.75153 164.4 6.76325 164.735 4.92762C165.236 2.18278 162.712 0.202779 160.15 0.871373C158.866 1.20653 157.876 2.0745 156.877 2.89778C156.133 3.51309 155.251 4.10778 154.619 4.8434C153.943 5.62543 154.81 6.97809 155.786 6.35247C156.974 5.59106 157.953 4.47387 159.06 3.60247C160.139 2.7534 162.742 1.76512 162.817 4.06309C162.84 4.78668 162.463 5.20434 162.004 5.64606C160.413 7.18434 157.895 8.53184 156.857 10.5428C156.623 10.9948 157.011 11.6084 157.546 11.4417Z" fill="#F99800"/>
<path id="Vector_161" d="M113.744 48.1972C108.957 54.6374 105.071 61.8407 101.041 68.7707C98.1155 73.798 94.7261 78.5383 91.3488 83.27C86.7099 89.7635 82.3975 96.8482 76.1808 101.97C69.4295 107.532 59.8458 110.615 51.723 106.025C44.2791 101.817 42.055 91.783 44.9666 84.1449C47.6994 76.9777 55.1261 72.435 61.4717 68.8102C67.8345 65.175 74.3194 61.7513 80.8266 58.386C90.3639 53.4532 100.104 48.8882 109.604 43.8917C109.767 43.8058 109.937 43.7285 110.104 43.6477C111.831 42.8038 110.317 40.2291 108.595 41.0713C99.7466 45.3957 90.9706 49.8833 82.272 54.5016C75.3695 58.166 68.5014 61.9008 61.7399 65.8178C55.2052 69.6042 48.0397 73.8633 44.1141 80.5596C39.9839 87.603 40.0716 97.6078 45.0199 104.244C50.4734 111.559 60.6158 113.144 68.8675 110.081C77.6125 106.836 83.5491 99.8817 88.7569 92.4963C93.3786 85.9444 98.2667 79.5146 102.294 72.5708C104.214 69.2622 105.975 65.8574 107.797 62.4955C110.09 58.2622 112.525 53.943 114.356 49.4846C114.476 49.1924 114.597 48.8985 114.717 48.6063C114.963 48.0047 114.072 47.7572 113.744 48.1972Z" fill="#F99800"/>
<path id="Vector_162" d="M113.045 46.2466C109.257 50.2135 105.69 54.4072 102.083 58.5391C95.2645 66.3474 88.3568 74.0921 81.212 81.6082C77.8862 85.1058 74.5226 88.6447 70.8152 91.7488C65.1949 96.4547 58.6671 100.219 51.8419 102.888C50.5288 103.4 47.7599 105.047 46.8885 103.264C46.0807 101.611 47.5605 99.5382 48.3769 98.1786C50.3243 94.9457 52.5415 91.8399 54.9134 88.9025C59.5299 83.1843 65.1227 78.3958 70.7602 73.7105C77.362 68.2277 84.218 63.0405 91.301 58.1919C98.133 53.5118 105.297 49.4693 112.375 45.1913C113.49 44.5175 112.517 42.9655 111.373 43.4794C104.233 46.6986 97.5504 51.1399 91.081 55.521C84.4277 60.0258 77.9893 64.8418 71.7674 69.9241C65.7552 74.8346 59.6726 79.8688 54.6315 85.7985C52.1049 88.7736 49.7571 91.9 47.6173 95.164C45.9673 97.6802 43.243 100.942 44.5768 104.141C46.0429 107.663 49.4941 106.46 52.2544 105.403C55.7194 104.074 59.0745 102.486 62.2834 100.623C68.0498 97.2763 73.1338 93.1066 77.8054 88.3766C85.5518 80.5322 92.7551 72.1585 99.8862 63.7589C104.602 58.2074 109.437 52.6627 113.676 46.733C113.944 46.36 113.356 45.9218 113.045 46.2466Z" fill="#F99800"/>
<path id="Vector_163" d="M112.639 45.4677C108.275 49.2009 104.379 53.5304 100.275 57.5454C92.1828 65.4688 83.9895 73.3063 75.4112 80.7073C71.6609 83.9454 67.8229 87.1234 63.7134 89.8991C60.6884 91.941 57.5001 93.9038 53.755 94.1066C51.3522 94.2373 49.3601 93.4862 49.2536 90.829C49.159 88.5345 49.9823 86.032 51.1442 84.0571C53.0761 80.7743 56.0392 78.0965 58.9112 75.6524C64.2737 71.0874 70.1518 67.1309 76.0609 63.3135C84.6667 57.7534 93.7211 52.8773 102.25 47.2071C103.313 46.5007 102.392 44.9195 101.247 45.497C92.6159 49.8437 84.3745 55.189 76.2534 60.4174C70.4853 64.1299 64.7687 67.9713 59.3993 72.2459C55.9498 74.9941 52.5209 77.9607 49.9497 81.5718C47.5589 84.9302 44.9275 91.1349 48.0247 94.7374C51.0634 98.2712 57.1512 96.5799 60.7073 94.7512C64.6965 92.7024 68.2973 89.8321 71.764 87.022C80.9954 79.5334 89.5634 71.1682 97.8254 62.6381C101.251 59.1009 104.639 55.5259 107.988 51.9182C109.099 50.7254 110.182 49.5085 111.261 48.2882C111.844 47.6299 112.552 46.951 112.981 46.1759C113.036 46.0745 113.124 45.9851 113.191 45.8923C113.442 45.5537 112.923 45.2271 112.639 45.4677Z" fill="#F99800"/>
<path id="Vector_164" d="M112.611 44.4054C102.365 52.597 92.1269 60.792 81.9759 69.1004C76.9847 73.1825 72.033 77.3178 67.1036 81.472C64.412 83.7425 61.6895 85.9906 59.1286 88.4089C56.7619 90.6432 54.237 93.034 52.9445 96.0762C51.9133 98.5048 50.9439 101.384 52.5028 103.78C53.553 105.394 55.5794 107.197 57.6195 107.248C60.4572 107.32 63.5011 105.966 65.9589 104.687C68.6023 103.312 70.9055 101.544 73.1226 99.5739C81.8298 91.8464 89.6656 83.0361 97.0889 74.0934C100.442 70.0509 103.765 65.9723 106.942 61.794C107.931 60.4964 108.91 59.2056 109.808 57.8426C110.045 57.4817 110.285 57.1207 110.517 56.7581C110.715 56.4539 110.762 56.38 110.78 56.3542C111.535 55.3401 109.83 54.3604 109.082 55.3642C108.969 55.5154 109.215 55.1923 109 55.4415C108.771 55.7062 108.544 55.9726 108.314 56.2356C107.563 57.1018 106.831 57.9732 106.121 58.8739C103.658 62.0072 101.197 65.1387 98.6942 68.2393C91.8467 76.7197 84.8376 85.1329 77.1875 92.912C73.31 96.8548 69.3328 100.918 64.3364 103.429C62.2636 104.471 58.6851 106.299 56.437 104.95C55.4642 104.364 54.5241 103.475 54.017 102.448C53.3037 101.009 53.9998 99.3504 54.5172 97.9376C55.6739 94.7803 58.1798 92.5167 60.5741 90.2651C63.1075 87.8829 65.7561 85.6314 68.403 83.3781C72.8992 79.5539 77.4281 75.7692 81.9605 71.9897C92.5325 63.1776 103.065 54.3003 113.278 45.0706C113.735 44.6564 113.073 44.0359 112.611 44.4054Z" fill="#F99800"/>
<path id="Vector_165" d="M157.782 7.02641C158.598 7.07454 159.387 6.63625 160.067 6.22719C160.862 5.74938 161.886 5.11516 161.919 4.11313C161.937 3.57344 161.456 3.14375 160.937 3.13172C160.004 3.10938 159.292 4.09078 158.768 4.77313C158.292 5.38844 157.747 6.02266 157.617 6.81157C157.598 6.92329 157.663 7.01954 157.782 7.02641Z" fill="#F99800"/>
</g>
<defs>
<clipPath id="clip0_2137_2037">
<rect width="165" height="165" fill="white"/>
</clipPath>
</defs>
</svg>
